<svg xmlns="http://www.w3.org/2000/svg" width="808.999" height="809" viewBox="0 0 808.999 809">
  <path id="Intersection_7" data-name="Intersection 7" d="M-292.459,1145.839a600.863,600.863,0,0,1-60.115-9.28,597.991,597.991,0,0,1-58.022-15.089c-18.782-5.908-37.5-12.836-55.626-20.591-17.962-7.685-35.769-16.36-52.924-25.787-17.036-9.36-33.831-19.68-49.919-30.673a611.281,611.281,0,0,1-89.6-74.775A615.312,615.312,0,0,1-732.6,879.017c-10.867-16.27-21.071-33.257-30.326-50.489-9.321-17.354-17.9-35.364-25.5-53.528-7.667-18.334-14.517-37.263-20.359-56.261-5.909-19.212-10.928-38.957-14.919-58.685-4.044-19.986-7.131-40.443-9.175-60.8-2.074-20.658-3.126-41.722-3.126-62.61s1.051-41.953,3.126-62.61c2.044-20.358,5.131-40.815,9.175-60.8,3.992-19.728,9.011-39.473,14.919-58.685q2.24-7.284,4.674-14.544h399.647a264.686,264.686,0,0,0-87.063,196.641c0,145.542,117.069,263.948,260.968,263.948,82.225,0,155.685-38.655,203.554-98.948v411.887q-11.7,4.224-23.513,7.942a597.924,597.924,0,0,1-58.022,15.089,600.839,600.839,0,0,1-60.116,9.28,608.24,608.24,0,0,1-61.9,3.162A608.257,608.257,0,0,1-292.459,1145.839Z" transform="translate(836 -340)" fill="rgba(53,30,74,0.64)"/>
</svg>
